<?xml version="1.0" encoding="utf-8"?>
<!-- Generator: Adobe Illustrator 27.5.0, SVG Export Plug-In . SVG Version: 6.00 Build 0)  -->
<svg version="1.1" id="Layer_1" xmlns="http://www.w3.org/2000/svg" xmlns:xlink="http://www.w3.org/1999/xlink" x="0px" y="0px"
	 viewBox="0 0 396 288" style="enable-background:new 0 0 396 288;" xml:space="preserve">
<g>
	<g>
		<defs>
			<rect id="SVGID_1_" width="396" height="288"/>
		</defs>
		
			<linearGradient id="SVGID_00000132770051137483828400000012757873215035672206_" gradientUnits="userSpaceOnUse" x1="198" y1="70.6836" x2="198" y2="292.7992">
			<stop  offset="0" style="stop-color:#FFFFFF"/>
			<stop  offset="1" style="stop-color:#9AFFFF"/>
		</linearGradient>
		
			<use xlink:href="#SVGID_1_"  style="overflow:visible;opacity:0.3;fill:url(#SVGID_00000132770051137483828400000012757873215035672206_);"/>
		<clipPath id="SVGID_00000155854900903782380450000001720035652438351023_">
			<use xlink:href="#SVGID_1_"  style="overflow:visible;opacity:0.3;"/>
		</clipPath>
		<g style="clip-path:url(#SVGID_00000155854900903782380450000001720035652438351023_);">
			
				<linearGradient id="SVGID_00000180343053507132515240000016585029624086177446_" gradientUnits="userSpaceOnUse" x1="36.7001" y1="278.076" x2="36.7001" y2="204.0292">
				<stop  offset="0" style="stop-color:#2975FF"/>
				<stop  offset="0.4634" style="stop-color:#29B7FF"/>
				<stop  offset="1" style="stop-color:#C2EAFF"/>
			</linearGradient>
			<path style="fill:url(#SVGID_00000180343053507132515240000016585029624086177446_);" d="M79.988,194.43H25.251
				c-4.547,0-11.523,1.194-15.743,2.726l-20.909,7.59v10.337h53.458c5.916,0,14.049-1.944,17.97-4.229l23.513-13.698
				C86.171,195.624,84.535,194.43,79.988,194.43z"/>
			
				<linearGradient id="SVGID_00000098909659843894099760000008350973598587034526_" gradientUnits="userSpaceOnUse" x1="253.9191" y1="278.0765" x2="253.9191" y2="204.029">
				<stop  offset="0" style="stop-color:#2975FF"/>
				<stop  offset="0.4634" style="stop-color:#29B7FF"/>
				<stop  offset="1" style="stop-color:#C2EAFF"/>
			</linearGradient>
			<path style="fill:url(#SVGID_00000098909659843894099760000008350973598587034526_);" d="M279.864,202.493h-46.91
				c-3.897,0-7.344-1.108-7.689-2.431l-2.204-8.456c-0.262-1.005,2.167-1.798,5.419-1.798h39.144c3.252,0,6.725,0.793,7.788,1.798
				l8.938,8.456C285.748,201.385,283.76,202.493,279.864,202.493z"/>
			
				<linearGradient id="SVGID_00000149341622410175702450000008346901747938172569_" gradientUnits="userSpaceOnUse" x1="343.9942" y1="278.0765" x2="343.9942" y2="204.029">
				<stop  offset="0" style="stop-color:#2975FF"/>
				<stop  offset="0.4634" style="stop-color:#29B7FF"/>
				<stop  offset="1" style="stop-color:#C2EAFF"/>
			</linearGradient>
			<path style="fill:url(#SVGID_00000149341622410175702450000008346901747938172569_);" d="M389.682,209.547h-65.064
				c-5.405,0-11.958-1.669-14.521-3.638l-15.609-11.994c-1.772-1.361,0.279-2.426,4.518-2.426h51.025
				c4.238,0,10.136,1.064,13.284,2.426l27.738,11.994C395.609,207.878,395.087,209.547,389.682,209.547z"/>
			
				<linearGradient id="SVGID_00000083775385832082024650000017185394577277054121_" gradientUnits="userSpaceOnUse" x1="219.0806" y1="278.0762" x2="219.0806" y2="204.0291">
				<stop  offset="0" style="stop-color:#2975FF"/>
				<stop  offset="0.4634" style="stop-color:#29B7FF"/>
				<stop  offset="1" style="stop-color:#C2EAFF"/>
			</linearGradient>
			<path style="fill:url(#SVGID_00000083775385832082024650000017185394577277054121_);" d="M232.71,205.915h-26.806
				c-2.227,0-3.998-0.666-3.957-1.471l0.276-5.45c0.035-0.684,1.684-1.23,3.684-1.23h24.077c2,0,3.831,0.546,4.095,1.23l2.098,5.45
				C236.486,205.249,234.937,205.915,232.71,205.915z"/>
			
				<linearGradient id="SVGID_00000053539252425894974970000008858449465823314868_" gradientUnits="userSpaceOnUse" x1="387.4173" y1="278.0763" x2="387.4173" y2="204.0291">
				<stop  offset="0" style="stop-color:#2975FF"/>
				<stop  offset="0.4634" style="stop-color:#29B7FF"/>
				<stop  offset="1" style="stop-color:#C2EAFF"/>
			</linearGradient>
			<path style="fill:url(#SVGID_00000053539252425894974970000008858449465823314868_);" d="M410.6,236.442h-37.56
				c-9.643,0-11.823,4.166-4.254,9.759l41.815,30.898V236.442z"/>
			
				<linearGradient id="SVGID_00000015324545742062078030000018362065266488425378_" gradientUnits="userSpaceOnUse" x1="366.5037" y1="278.0762" x2="366.5037" y2="204.029">
				<stop  offset="0" style="stop-color:#2975FF"/>
				<stop  offset="0.4634" style="stop-color:#29B7FF"/>
				<stop  offset="1" style="stop-color:#C2EAFF"/>
			</linearGradient>
			<path style="fill:url(#SVGID_00000015324545742062078030000018362065266488425378_);" d="M393.9,222.808h-34.902
				c-2.899,0-6.846-1.047-8.768-2.307l-12.698-8.328c-1.559-1.022-0.748-1.834,1.778-1.834h30.414c2.526,0,6.191,0.811,8.229,1.834
				l16.598,8.328C397.064,221.761,396.799,222.808,393.9,222.808z"/>
			
				<linearGradient id="SVGID_00000092431593629779943150000010626071427409879189_" gradientUnits="userSpaceOnUse" x1="129.8437" y1="278.0769" x2="129.8437" y2="204.0291">
				<stop  offset="0" style="stop-color:#2975FF"/>
				<stop  offset="0.4634" style="stop-color:#29B7FF"/>
				<stop  offset="1" style="stop-color:#C2EAFF"/>
			</linearGradient>
			<path style="fill:url(#SVGID_00000092431593629779943150000010626071427409879189_);" d="M140.49,199.473h-28.528
				c-2.37,0-3.422-0.651-2.371-1.438l7.07-5.297c0.884-0.662,3.301-1.189,5.416-1.189h25.457c2.115,0,3.391,0.527,2.841,1.189
				l-4.4,5.297C145.322,198.822,142.86,199.473,140.49,199.473z"/>
			
				<linearGradient id="SVGID_00000014623211283268315640000005871085995192132783_" gradientUnits="userSpaceOnUse" x1="19.6643" y1="278.0762" x2="19.6643" y2="204.0289">
				<stop  offset="0" style="stop-color:#2975FF"/>
				<stop  offset="0.4634" style="stop-color:#29B7FF"/>
				<stop  offset="1" style="stop-color:#C2EAFF"/>
			</linearGradient>
			<path style="fill:url(#SVGID_00000014623211283268315640000005871085995192132783_);" d="M46.527,211.126H-8.111
				c-0.975,0-2.093,0.072-3.289,0.198v25.423h10.032c5.902,0,14.961-2.411,19.984-5.243l30.13-16.994
				C52.117,212.609,51.066,211.126,46.527,211.126z"/>
			
				<linearGradient id="SVGID_00000094618541606322433480000011484383993197819048_" gradientUnits="userSpaceOnUse" x1="81.3576" y1="278.0763" x2="81.3576" y2="204.0291">
				<stop  offset="0" style="stop-color:#2975FF"/>
				<stop  offset="0.4634" style="stop-color:#29B7FF"/>
				<stop  offset="1" style="stop-color:#C2EAFF"/>
			</linearGradient>
			<path style="opacity:0.2;fill:url(#SVGID_00000094618541606322433480000011484383993197819048_);" d="M162.076,253.91H69.347
				c-7.703,0-18.442,3.825-24.372,8.869L-11.4,310.737v25.778h145.191c12.672,0,25.184-9.592,27.681-20.285l12.481-53.452
				C175.13,257.734,169.779,253.91,162.076,253.91z"/>
			
				<linearGradient id="SVGID_00000146492153063202383070000009721607924036125067_" gradientUnits="userSpaceOnUse" x1="372.0853" y1="278.0764" x2="372.0853" y2="204.0291">
				<stop  offset="0" style="stop-color:#2975FF"/>
				<stop  offset="0.4634" style="stop-color:#29B7FF"/>
				<stop  offset="1" style="stop-color:#C2EAFF"/>
			</linearGradient>
			<path style="opacity:0.2;fill:url(#SVGID_00000146492153063202383070000009721607924036125067_);" d="M410.6,200.913
				l-7.175-2.631c-3.936-1.443-10.437-2.572-14.66-2.572h-50.84c-4.223,0-5.638,1.128-3.068,2.572l22.622,12.707
				c3.711,2.085,11.217,3.851,16.597,3.851H410.6V200.913z"/>
			
				<linearGradient id="SVGID_00000164510818840118749150000011049224416656151969_" gradientUnits="userSpaceOnUse" x1="331.909" y1="278.0763" x2="331.909" y2="204.0289">
				<stop  offset="0" style="stop-color:#2975FF"/>
				<stop  offset="0.4634" style="stop-color:#29B7FF"/>
				<stop  offset="1" style="stop-color:#C2EAFF"/>
			</linearGradient>
			<path style="opacity:0.2;fill:url(#SVGID_00000164510818840118749150000011049224416656151969_);" d="M410.6,256.117
				l-31.295-19.917c-6.233-3.967-17.064-6.979-24.585-6.979h-90.549c-7.522,0-12.319,3.012-10.606,6.979l17.956,41.587
				c3.55,8.223,16.605,15.572,28.794,15.572H410.6V256.117z"/>
			
				<linearGradient id="SVGID_00000129183349048197717950000005891438968769340574_" gradientUnits="userSpaceOnUse" x1="296.5409" y1="278.0758" x2="296.5409" y2="204.029">
				<stop  offset="0" style="stop-color:#2975FF"/>
				<stop  offset="0.4634" style="stop-color:#29B7FF"/>
				<stop  offset="1" style="stop-color:#C2EAFF"/>
			</linearGradient>
			<path style="opacity:0.2;fill:url(#SVGID_00000129183349048197717950000005891438968769340574_);" d="M317.543,205.879h-32.248
				c-2.679,0-5.594-0.799-6.492-1.763l-5.975-6.416c-0.739-0.794,0.585-1.424,2.942-1.424h28.379c2.357,0,5.186,0.631,6.341,1.424
				l9.339,6.416C321.23,205.08,320.222,205.879,317.543,205.879z"/>
			
				<linearGradient id="SVGID_00000127759248798122384090000014990979261784418188_" gradientUnits="userSpaceOnUse" x1="48.4824" y1="278.0763" x2="48.4824" y2="204.0289">
				<stop  offset="0" style="stop-color:#2975FF"/>
				<stop  offset="0.4634" style="stop-color:#29B7FF"/>
				<stop  offset="1" style="stop-color:#C2EAFF"/>
			</linearGradient>
			<path style="opacity:0.2;fill:url(#SVGID_00000127759248798122384090000014990979261784418188_);" d="M67.043,247.016h-69.33
				c-5.759,0-5.788-2.571-0.329-5.596l32.891-18.227c3.695-2.047,10.188-3.645,14.641-3.645h53.612c4.453,0,6.37,1.598,4.199,3.645
				L83.404,241.42C80.196,244.445,72.802,247.016,67.043,247.016z"/>
			
				<linearGradient id="SVGID_00000124873412792641711490000000704549893824623773_" gradientUnits="userSpaceOnUse" x1="363.7848" y1="278.0765" x2="363.7848" y2="204.0292">
				<stop  offset="0" style="stop-color:#2975FF"/>
				<stop  offset="0.4634" style="stop-color:#29B7FF"/>
				<stop  offset="1" style="stop-color:#C2EAFF"/>
			</linearGradient>
			<path style="opacity:0.2;fill:url(#SVGID_00000124873412792641711490000000704549893824623773_);" d="M410.6,200.155
				l-25.773-9.355c-3.48-1.263-9.546-2.252-13.669-2.252h-49.64c-4.123,0-5.761,0.988-3.582,2.252l19.091,11.068
				c3.116,1.807,9.984,3.336,15.203,3.336h58.37V200.155z"/>
			
				<linearGradient id="SVGID_00000013914527804478509950000006783311749468897200_" gradientUnits="userSpaceOnUse" x1="167.4321" y1="278.0764" x2="167.4321" y2="204.029">
				<stop  offset="0" style="stop-color:#2975FF"/>
				<stop  offset="0.4634" style="stop-color:#29B7FF"/>
				<stop  offset="1" style="stop-color:#C2EAFF"/>
			</linearGradient>
			<path style="opacity:0.2;fill:url(#SVGID_00000013914527804478509950000006783311749468897200_);" d="M184.484,201.895H147.12
				c-3.104,0-4.876-0.878-3.981-1.934l5.869-6.927c0.716-0.845,3.456-1.514,6.136-1.514h32.266c2.68,0,4.714,0.669,4.538,1.514
				l-1.441,6.927C190.286,201.017,187.587,201.895,184.484,201.895z"/>
			
				<linearGradient id="SVGID_00000136384098359122627890000000485302882292926637_" gradientUnits="userSpaceOnUse" x1="100.1357" y1="278.0763" x2="100.1357" y2="204.029">
				<stop  offset="0" style="stop-color:#2975FF"/>
				<stop  offset="0.4634" style="stop-color:#29B7FF"/>
				<stop  offset="1" style="stop-color:#C2EAFF"/>
			</linearGradient>
			<path style="opacity:0.2;fill:url(#SVGID_00000136384098359122627890000000485302882292926637_);" d="M121.016,230.846H61.509
				c-4.943,0-6.148-1.918-2.83-4.19l20.505-14.037c2.36-1.615,7.41-2.881,11.36-2.881h47.543c3.949,0,6.235,1.266,5.066,2.881
				l-10.155,14.037C131.354,228.927,125.959,230.846,121.016,230.846z"/>
			
				<linearGradient id="SVGID_00000158718127231831870980000016022695259346591671_" gradientUnits="userSpaceOnUse" x1="375.3105" y1="278.0763" x2="375.3105" y2="204.0291">
				<stop  offset="0" style="stop-color:#2975FF"/>
				<stop  offset="0.4634" style="stop-color:#29B7FF"/>
				<stop  offset="1" style="stop-color:#C2EAFF"/>
			</linearGradient>
			<path style="opacity:0.2;fill:url(#SVGID_00000158718127231831870980000016022695259346591671_);" d="M410.6,249.444h-63.692
				c-6.86,0-9.013,3.277-4.551,7.566l45.039,43.295c5.683,5.463,14.699,10.485,23.204,13.246V249.444z"/>
			
				<linearGradient id="SVGID_00000152249443056333264570000013042438889841748918_" gradientUnits="userSpaceOnUse" x1="47.1819" y1="278.0763" x2="47.1819" y2="204.029">
				<stop  offset="0" style="stop-color:#2975FF"/>
				<stop  offset="0.4634" style="stop-color:#29B7FF"/>
				<stop  offset="1" style="stop-color:#C2EAFF"/>
			</linearGradient>
			<path style="opacity:0.4;fill:url(#SVGID_00000152249443056333264570000013042438889841748918_);" d="M99.731,258.933H36.819
				c-5.226,0-13.046,2.671-17.67,6.117L-11.4,287.816v19.354h72.639c7.12,0,16.333-4.733,20.337-10.243l23.171-31.877
				C107.252,261.604,104.957,258.933,99.731,258.933z"/>
			
				<linearGradient id="SVGID_00000119089812936022323200000011052211156377269130_" gradientUnits="userSpaceOnUse" x1="397.5414" y1="278.0767" x2="397.5414" y2="204.029">
				<stop  offset="0" style="stop-color:#2975FF"/>
				<stop  offset="0.4634" style="stop-color:#29B7FF"/>
				<stop  offset="1" style="stop-color:#C2EAFF"/>
			</linearGradient>
			<path style="opacity:0.4;fill:url(#SVGID_00000119089812936022323200000011052211156377269130_);" d="M410.6,214.11h-23.886
				c-2.626,0-2.997,0.881-0.78,1.993l18.139,9.094c1.706,0.855,4.174,1.62,6.526,2.08V214.11z"/>
			
				<linearGradient id="SVGID_00000150061133594741210810000015183454198334370985_" gradientUnits="userSpaceOnUse" x1="295.705" y1="278.0763" x2="295.705" y2="204.0291">
				<stop  offset="0" style="stop-color:#2975FF"/>
				<stop  offset="0.4634" style="stop-color:#29B7FF"/>
				<stop  offset="1" style="stop-color:#C2EAFF"/>
			</linearGradient>
			<path style="opacity:0.4;fill:url(#SVGID_00000150061133594741210810000015183454198334370985_);" d="M352.546,225.847h-97.704
				c-8.116,0-15.71-2.965-16.882-6.388l-6.591-19.255c-0.694-2.027,3.427-3.59,9.17-3.59h69.138c5.743,0,12.922,1.564,16.191,3.59
				l31.066,19.255C362.458,222.882,360.662,225.847,352.546,225.847z"/>
			
				<linearGradient id="SVGID_00000151501895776206679870000005360639483037064586_" gradientUnits="userSpaceOnUse" x1="19.6137" y1="278.0764" x2="19.6137" y2="204.0291">
				<stop  offset="0" style="stop-color:#2975FF"/>
				<stop  offset="0.4634" style="stop-color:#29B7FF"/>
				<stop  offset="1" style="stop-color:#C2EAFF"/>
			</linearGradient>
			<path style="opacity:0.4;fill:url(#SVGID_00000151501895776206679870000005360639483037064586_);" d="M44.951,231.572H-11.4
				v44.53c5.43-1.937,10.709-4.494,14.582-7.226l44.727-31.551C52.52,234.073,51.089,231.572,44.951,231.572z"/>
			
				<linearGradient id="SVGID_00000042736700466072400970000014736042293307483052_" gradientUnits="userSpaceOnUse" x1="22.7793" y1="278.0767" x2="22.7793" y2="204.0291">
				<stop  offset="0" style="stop-color:#2975FF"/>
				<stop  offset="0.4634" style="stop-color:#29B7FF"/>
				<stop  offset="1" style="stop-color:#C2EAFF"/>
			</linearGradient>
			<path style="opacity:0.4;fill:url(#SVGID_00000042736700466072400970000014736042293307483052_);" d="M54.265,196.731H20.08
				c-2.84,0-7.205,0.766-9.814,1.734l-21.54,7.993c-0.045,0.017-0.082,0.033-0.126,0.049v2.199c0.026,0,0.047,0.001,0.074,0.001
				h39.962c3.319,0,8.125-1.023,10.662-2.25l16.525-7.993C57.823,197.497,57.105,196.731,54.265,196.731z"/>
			
				<linearGradient id="SVGID_00000060743779714911730510000007079923215135604397_" gradientUnits="userSpaceOnUse" x1="42.9266" y1="278.0763" x2="42.9266" y2="204.0291">
				<stop  offset="0" style="stop-color:#2975FF"/>
				<stop  offset="0.4634" style="stop-color:#29B7FF"/>
				<stop  offset="1" style="stop-color:#C2EAFF"/>
			</linearGradient>
			<path style="opacity:0.4;fill:url(#SVGID_00000060743779714911730510000007079923215135604397_);" d="M92.077,238.498H36.145
				c-4.646,0-11.585,2.005-15.658,4.58L-11.4,263.235v10.16h68.207c6.086,0,14.112-3.305,17.742-7.182l21.654-23.135
				C98.613,240.504,96.723,238.498,92.077,238.498z"/>
			
				<linearGradient id="SVGID_00000182525110316959261880000004877529370963407493_" gradientUnits="userSpaceOnUse" x1="154.3949" y1="278.0762" x2="154.3949" y2="204.0288">
				<stop  offset="0" style="stop-color:#2975FF"/>
				<stop  offset="0.4634" style="stop-color:#29B7FF"/>
				<stop  offset="1" style="stop-color:#C2EAFF"/>
			</linearGradient>
			<path style="opacity:0.4;fill:url(#SVGID_00000182525110316959261880000004877529370963407493_);" d="M218.257,235.789H84.251
				c-11.132,0-14.451-4.422-8.016-9.409l33.409-25.895c3.264-2.53,11.512-4.459,18.617-4.459h85.535
				c7.105,0,13.435,1.929,14.183,4.459l7.653,25.895C237.105,231.367,229.388,235.789,218.257,235.789z"/>
			
				<linearGradient id="SVGID_00000127728169190201854600000008013643139747142582_" gradientUnits="userSpaceOnUse" x1="272.525" y1="278.0764" x2="272.525" y2="204.0294">
				<stop  offset="0" style="stop-color:#2975FF"/>
				<stop  offset="0.4634" style="stop-color:#29B7FF"/>
				<stop  offset="1" style="stop-color:#C2EAFF"/>
			</linearGradient>
			<path style="opacity:0.4;fill:url(#SVGID_00000127728169190201854600000008013643139747142582_);" d="M319.915,242.865H234.05
				c-7.133,0-13.312-3.06-13.775-6.621l-2.678-20.597c-0.289-2.226,3.728-3.951,8.961-3.951h62.992
				c5.233,0,11.345,1.725,13.759,3.951l22.34,20.597C329.511,239.805,327.048,242.865,319.915,242.865z"/>
			
				<linearGradient id="SVGID_00000057134408816368219360000003995166527265986749_" gradientUnits="userSpaceOnUse" x1="158.5076" y1="278.0763" x2="158.5076" y2="204.0291">
				<stop  offset="0" style="stop-color:#2975FF"/>
				<stop  offset="0.4634" style="stop-color:#29B7FF"/>
				<stop  offset="1" style="stop-color:#C2EAFF"/>
			</linearGradient>
			<path style="opacity:0.4;fill:url(#SVGID_00000057134408816368219360000003995166527265986749_);" d="M248.279,291.862H62.003
				c-15.474,0-18.553-9.138-8.221-19.113l48.416-46.744c4.31-4.161,14.566-7.289,23.222-7.289h104.198
				c8.655,0,16.998,3.128,18.762,7.289l19.816,46.744C272.423,282.724,263.753,291.862,248.279,291.862z"/>
			
				<linearGradient id="SVGID_00000010274165966173071530000004688439673626935210_" gradientUnits="userSpaceOnUse" x1="234.2182" y1="278.0765" x2="234.2182" y2="204.029">
				<stop  offset="0" style="stop-color:#2975FF"/>
				<stop  offset="0.4634" style="stop-color:#29B7FF"/>
				<stop  offset="1" style="stop-color:#C2EAFF"/>
			</linearGradient>
			<path style="opacity:0.4;fill:url(#SVGID_00000010274165966173071530000004688439673626935210_);" d="M289.725,218.95H181.727
				c-8.971,0-14.922-3.041-13.407-6.53l8.326-19.166c0.857-1.973,6.509-3.49,12.667-3.49h74.139c6.159,0,12.781,1.517,14.902,3.49
				l20.597,19.166C302.7,215.909,298.696,218.95,289.725,218.95z"/>
			
				<linearGradient id="SVGID_00000041979480778469411800000012952473641844664207_" gradientUnits="userSpaceOnUse" x1="332.4619" y1="278.076" x2="332.4619" y2="204.0291">
				<stop  offset="0" style="stop-color:#2975FF"/>
				<stop  offset="0.4634" style="stop-color:#29B7FF"/>
				<stop  offset="1" style="stop-color:#C2EAFF"/>
			</linearGradient>
			<path style="opacity:0.7;fill:url(#SVGID_00000041979480778469411800000012952473641844664207_);" d="M393.841,218.956h-94.692
				c-7.866,0-16.514-2.678-19.142-5.776l-14.888-17.549c-1.577-1.859,1.757-3.295,7.374-3.295h67.616
				c5.617,0,13.288,1.436,17.326,3.295l38.107,17.549C402.269,216.279,401.707,218.956,393.841,218.956z"/>
			
				<linearGradient id="SVGID_00000035493474343171821730000004878098192824777625_" gradientUnits="userSpaceOnUse" x1="332.9744" y1="278.0765" x2="332.9744" y2="204.0291">
				<stop  offset="0" style="stop-color:#2975FF"/>
				<stop  offset="0.4634" style="stop-color:#29B7FF"/>
				<stop  offset="1" style="stop-color:#C2EAFF"/>
			</linearGradient>
			<path style="opacity:0.7;fill:url(#SVGID_00000035493474343171821730000004878098192824777625_);" d="M384.983,234.241h-77.944
				c-6.475,0-13.851-2.579-16.339-5.596l-14.674-17.792c-1.615-1.958,1.077-3.48,5.947-3.48h58.622c4.87,0,11.497,1.522,14.944,3.48
				l31.318,17.792C392.167,231.662,391.458,234.241,384.983,234.241z"/>
			
				<linearGradient id="SVGID_00000158015976052023495620000017575512433857735335_" gradientUnits="userSpaceOnUse" x1="172.1842" y1="278.0763" x2="172.1842" y2="204.029">
				<stop  offset="0" style="stop-color:#2975FF"/>
				<stop  offset="0.4634" style="stop-color:#29B7FF"/>
				<stop  offset="1" style="stop-color:#C2EAFF"/>
			</linearGradient>
			<path style="opacity:0.7;fill:url(#SVGID_00000158015976052023495620000017575512433857735335_);" d="M194.132,211.656h-46.327
				c-3.848,0-6.038-1.225-4.928-2.689l7.108-9.37c0.846-1.115,4.122-1.995,7.34-1.995h38.738c3.218,0,5.777,0.88,5.714,1.995
				l-0.527,9.37C201.169,210.43,197.981,211.656,194.132,211.656z"/>
			
				<linearGradient id="SVGID_00000141424186055636079760000016881553175196151988_" gradientUnits="userSpaceOnUse" x1="76.213" y1="278.0764" x2="76.213" y2="204.0291">
				<stop  offset="0" style="stop-color:#2975FF"/>
				<stop  offset="0.4634" style="stop-color:#29B7FF"/>
				<stop  offset="1" style="stop-color:#C2EAFF"/>
			</linearGradient>
			<path style="opacity:0.7;fill:url(#SVGID_00000141424186055636079760000016881553175196151988_);" d="M119.688,229.879H2.095
				c-9.768,0-9.83-3.69-0.873-7.896l48.168-22.619c4.862-2.283,13.876-4.033,20.4-4.033h78.538c6.524,0,10.66,1.749,9.155,4.033
				l-14.906,22.619C139.806,226.189,129.456,229.879,119.688,229.879z"/>
			
				<linearGradient id="SVGID_00000102537381122467593370000008584908889190961046_" gradientUnits="userSpaceOnUse" x1="251.3372" y1="278.0763" x2="251.3372" y2="204.0289">
				<stop  offset="0" style="stop-color:#2975FF"/>
				<stop  offset="0.4634" style="stop-color:#29B7FF"/>
				<stop  offset="1" style="stop-color:#C2EAFF"/>
			</linearGradient>
			<path style="opacity:0.7;fill:url(#SVGID_00000102537381122467593370000008584908889190961046_);" d="M288.924,269.041h-71.418
				c-5.932,0-10.76-3.128-10.782-6.803l-0.13-22.028c-0.014-2.462,3.668-4.381,8.224-4.381h54.852c4.556,0,9.507,1.919,11.119,4.381
				l14.422,22.028C297.618,265.913,294.857,269.041,288.924,269.041z"/>
			
				<linearGradient id="SVGID_00000060750658289211721960000010745518400827756432_" gradientUnits="userSpaceOnUse" x1="370.0923" y1="278.0763" x2="370.0923" y2="204.0289">
				<stop  offset="0" style="stop-color:#2975FF"/>
				<stop  offset="0.4634" style="stop-color:#29B7FF"/>
				<stop  offset="1" style="stop-color:#C2EAFF"/>
			</linearGradient>
			<path style="opacity:0.7;fill:url(#SVGID_00000060750658289211721960000010745518400827756432_);" d="M410.6,222.886
				c-2.941-0.584-5.769-0.929-8.037-0.929h-67.139c-5.577,0-7.537,2.061-4.223,4.728l31.217,25.124
				c5.499,4.426,16.563,8.249,24.351,8.249h23.83V222.886z"/>
			
				<linearGradient id="SVGID_00000086676826398715272550000000012347420920998832_" gradientUnits="userSpaceOnUse" x1="221.25" y1="278.0762" x2="221.25" y2="204.0291">
				<stop  offset="0" style="stop-color:#2975FF"/>
				<stop  offset="0.4634" style="stop-color:#29B7FF"/>
				<stop  offset="1" style="stop-color:#C2EAFF"/>
			</linearGradient>
			<path style="opacity:0.7;fill:url(#SVGID_00000086676826398715272550000000012347420920998832_);" d="M242.132,222.009h-40.993
				c-3.405,0-6.027-1.217-5.861-2.676l1.079-9.479c0.13-1.145,2.586-2.05,5.488-2.05h34.937c2.902,0,5.654,0.905,6.158,2.05
				l4.177,9.479C247.762,220.792,245.537,222.009,242.132,222.009z"/>
			
				<linearGradient id="SVGID_00000026849478784228737420000009558178531020108201_" gradientUnits="userSpaceOnUse" x1="24.906" y1="278.0763" x2="24.906" y2="204.029">
				<stop  offset="0" style="stop-color:#2975FF"/>
				<stop  offset="0.4634" style="stop-color:#29B7FF"/>
				<stop  offset="1" style="stop-color:#C2EAFF"/>
			</linearGradient>
			<path style="opacity:0.7;fill:url(#SVGID_00000026849478784228737420000009558178531020108201_);" d="M53.527,250.492H-11.4
				v70.577c3.142-2.099,6.044-4.315,8.548-6.577l60.907-55.031C63.708,254.354,61.51,250.492,53.527,250.492z"/>
			
				<linearGradient id="SVGID_00000106827112425667280390000013833980316663561660_" gradientUnits="userSpaceOnUse" x1="329.226" y1="278.0763" x2="329.226" y2="204.0291">
				<stop  offset="0" style="stop-color:#2975FF"/>
				<stop  offset="0.4634" style="stop-color:#29B7FF"/>
				<stop  offset="1" style="stop-color:#C2EAFF"/>
			</linearGradient>
			<path style="opacity:0.7;fill:url(#SVGID_00000106827112425667280390000013833980316663561660_);" d="M410.6,277.495
				l-25.428-18.838c-7-5.186-18.892-9.101-27.042-9.101h-98.117c-8.15,0-13.512,3.915-11.863,9.101l17.95,56.45
				c3.699,11.633,18.341,22.168,32.271,22.168H410.6V277.495z"/>
			
				<linearGradient id="SVGID_00000047746903321283156450000003137792004056834214_" gradientUnits="userSpaceOnUse" x1="77.3964" y1="278.0763" x2="77.3964" y2="204.0292">
				<stop  offset="0" style="stop-color:#2975FF"/>
				<stop  offset="0.4634" style="stop-color:#29B7FF"/>
				<stop  offset="1" style="stop-color:#C2EAFF"/>
			</linearGradient>
			<path style="opacity:0.7;fill:url(#SVGID_00000047746903321283156450000003137792004056834214_);" d="M154.714,221.104h-91.68
				c-7.616,0-18.414,2.812-24.509,6.517L-11.4,257.97v23.442h133.689c12.438,0,25.254-6.958,28.307-14.729l15.347-39.063
				C167.399,223.916,162.33,221.104,154.714,221.104z"/>
		</g>
	</g>
	<g>
		<g>
			<path style="fill:#3E79D1;" d="M151.205,131.784l-0.458-1.063h-2.063l-0.458,1.063h-1.168l2.126-4.922h1.064l2.126,4.922H151.205
				z M149.72,128.327l-0.62,1.43h1.232L149.72,128.327z"/>
			<path style="fill:#3E79D1;" d="M157.211,131.784h-2.154v-4.922h1.915c0.333,0,0.62,0.041,0.862,0.12
				c0.241,0.08,0.424,0.188,0.546,0.324c0.221,0.253,0.33,0.54,0.33,0.858c0,0.385-0.124,0.672-0.373,0.859
				c-0.084,0.065-0.143,0.107-0.176,0.123c-0.033,0.017-0.092,0.043-0.176,0.081c0.305,0.065,0.548,0.203,0.729,0.411
				c0.181,0.209,0.271,0.469,0.271,0.779c0,0.342-0.118,0.645-0.352,0.908C158.361,131.632,157.887,131.784,157.211,131.784z
				 M156.155,128.855h0.521c0.305,0,0.531-0.032,0.68-0.099c0.148-0.066,0.222-0.208,0.222-0.426c0-0.219-0.068-0.363-0.204-0.434
				c-0.137-0.07-0.366-0.105-0.69-0.105h-0.528V128.855z M156.155,130.854h0.754c0.314,0,0.55-0.039,0.707-0.115
				c0.157-0.078,0.236-0.23,0.236-0.458c0-0.227-0.083-0.378-0.25-0.45c-0.167-0.073-0.433-0.109-0.799-0.109h-0.648V130.854z"/>
			<path style="fill:#3E79D1;" d="M163.171,127.845c-0.107,0.088-0.159,0.202-0.159,0.346c0,0.143,0.064,0.256,0.194,0.341
				c0.129,0.085,0.427,0.185,0.894,0.3c0.467,0.115,0.83,0.287,1.088,0.518c0.258,0.23,0.388,0.565,0.388,1.006
				c0,0.441-0.166,0.799-0.497,1.074c-0.331,0.274-0.766,0.412-1.306,0.412c-0.779,0-1.481-0.289-2.105-0.866l0.655-0.803
				c0.53,0.465,1.021,0.697,1.472,0.697c0.201,0,0.359-0.044,0.475-0.13c0.115-0.088,0.173-0.205,0.173-0.353
				c0-0.147-0.061-0.265-0.184-0.352c-0.122-0.086-0.363-0.174-0.725-0.264c-0.573-0.137-0.992-0.313-1.257-0.531
				c-0.266-0.219-0.397-0.561-0.397-1.028c0-0.467,0.167-0.827,0.503-1.081c0.336-0.253,0.755-0.38,1.257-0.38
				c0.328,0,0.657,0.057,0.985,0.169c0.329,0.113,0.615,0.272,0.859,0.479l-0.557,0.803c-0.427-0.324-0.868-0.485-1.323-0.485
				C163.42,127.715,163.277,127.759,163.171,127.845z"/>
			<path style="fill:#3E79D1;" d="M170.665,127.813v3.971h-1.099v-3.971h-1.394v-0.951h3.886v0.951H170.665z"/>
			<path style="fill:#3E79D1;" d="M178.966,128.496c0,0.788-0.313,1.298-0.936,1.528l1.246,1.76h-1.352l-1.091-1.57h-0.761v1.57
				h-1.099v-4.922h1.866c0.765,0,1.311,0.13,1.637,0.388C178.803,127.509,178.966,127.924,178.966,128.496z M177.643,129.081
				c0.136-0.123,0.204-0.316,0.204-0.581c0-0.265-0.07-0.447-0.212-0.546c-0.141-0.099-0.387-0.149-0.739-0.149h-0.823v1.458h0.803
				C177.25,129.264,177.506,129.202,177.643,129.081z"/>
			<path style="fill:#3E79D1;" d="M185.711,131.784l-0.458-1.063h-2.063l-0.458,1.063h-1.169l2.126-4.922h1.064l2.126,4.922H185.711
				z M184.225,128.327l-0.619,1.43h1.232L184.225,128.327z"/>
			<path style="fill:#3E79D1;" d="M191.822,130.812c0.539,0,0.98-0.214,1.323-0.641l0.704,0.726
				c-0.559,0.629-1.217,0.943-1.975,0.943c-0.759,0-1.383-0.24-1.873-0.719c-0.49-0.479-0.736-1.082-0.736-1.813
				c0-0.73,0.25-1.339,0.75-1.827s1.111-0.732,1.834-0.732c0.808,0,1.483,0.308,2.028,0.923l-0.684,0.773
				c-0.347-0.432-0.779-0.646-1.295-0.646c-0.413,0-0.767,0.135-1.06,0.404c-0.294,0.27-0.44,0.634-0.44,1.092
				c0,0.457,0.139,0.824,0.416,1.101C191.092,130.675,191.428,130.812,191.822,130.812z"/>
			<path style="fill:#3E79D1;" d="M198.911,127.813v3.971h-1.098v-3.971h-1.395v-0.951h3.887v0.951H198.911z"/>
			<path style="fill:#3E79D1;" d="M209.007,129.996l1.254-3.134h1.189l-1.979,4.922h-0.93l-1.978-4.922h1.189L209.007,129.996z"/>
			<path style="fill:#3E79D1;" d="M217.696,126.862v0.979h-2.45v1.015h2.204v0.937h-2.204v1.02h2.527v0.972h-3.626v-4.922H217.696z"
				/>
			<path style="fill:#3E79D1;" d="M223.124,130.812c0.539,0,0.98-0.214,1.323-0.641l0.704,0.726
				c-0.559,0.629-1.217,0.943-1.975,0.943c-0.759,0-1.383-0.24-1.873-0.719c-0.49-0.479-0.736-1.082-0.736-1.813
				c0-0.73,0.25-1.339,0.75-1.827s1.111-0.732,1.834-0.732c0.808,0,1.483,0.308,2.028,0.923l-0.684,0.773
				c-0.347-0.432-0.779-0.646-1.295-0.646c-0.413,0-0.767,0.135-1.059,0.404c-0.294,0.27-0.441,0.634-0.441,1.092
				c0,0.457,0.139,0.824,0.416,1.101C222.394,130.675,222.73,130.812,223.124,130.812z"/>
			<path style="fill:#3E79D1;" d="M230.213,127.813v3.971h-1.098v-3.971h-1.395v-0.951h3.887v0.951H230.213z"/>
			<path style="fill:#3E79D1;" d="M238.528,131.104c-0.497,0.486-1.109,0.729-1.837,0.729c-0.728,0-1.341-0.242-1.838-0.729
				c-0.497-0.485-0.746-1.09-0.746-1.813c0-0.723,0.249-1.327,0.746-1.813c0.497-0.486,1.11-0.729,1.838-0.729
				c0.727,0,1.34,0.243,1.837,0.729c0.498,0.485,0.747,1.09,0.747,1.813C239.275,130.014,239.026,130.619,238.528,131.104z
				 M238.155,129.296c0-0.44-0.141-0.815-0.422-1.123c-0.282-0.311-0.628-0.465-1.039-0.465c-0.41,0-0.757,0.154-1.038,0.465
				c-0.281,0.309-0.423,0.684-0.423,1.123c0,0.438,0.142,0.811,0.423,1.119c0.281,0.307,0.628,0.461,1.038,0.461
				c0.411,0,0.757-0.154,1.039-0.461C238.014,130.107,238.155,129.734,238.155,129.296z"/>
			<path style="fill:#3E79D1;" d="M246.308,128.496c0,0.788-0.313,1.298-0.937,1.528l1.246,1.76h-1.352l-1.091-1.57h-0.761v1.57
				h-1.099v-4.922h1.866c0.765,0,1.311,0.13,1.637,0.388C246.145,127.509,246.308,127.924,246.308,128.496z M244.985,129.081
				c0.136-0.123,0.204-0.316,0.204-0.581c0-0.265-0.07-0.447-0.212-0.546c-0.141-0.099-0.387-0.149-0.739-0.149h-0.823v1.458h0.803
				C244.592,129.264,244.848,129.202,244.985,129.081z"/>
		</g>
		<g>
			<path style="fill:#3E79D1;" d="M155.961,138.711v-0.936h2.507v0.936H155.961z"/>
			<path style="fill:#3E79D1;" d="M163.812,140.358h-2.154v-4.922h1.915c0.333,0,0.62,0.041,0.862,0.12
				c0.241,0.08,0.424,0.188,0.546,0.324c0.221,0.253,0.33,0.54,0.33,0.858c0,0.385-0.124,0.672-0.373,0.859
				c-0.084,0.065-0.143,0.107-0.176,0.123c-0.033,0.017-0.092,0.043-0.176,0.081c0.305,0.065,0.548,0.203,0.729,0.411
				c0.181,0.209,0.271,0.469,0.271,0.779c0,0.342-0.118,0.645-0.352,0.908C164.961,140.206,164.488,140.358,163.812,140.358z
				 M162.755,137.43h0.521c0.305,0,0.531-0.032,0.68-0.099c0.148-0.066,0.222-0.208,0.222-0.426c0-0.219-0.068-0.363-0.204-0.434
				c-0.137-0.07-0.366-0.105-0.69-0.105h-0.528V137.43z M162.755,139.429h0.754c0.314,0,0.55-0.039,0.707-0.115
				c0.157-0.078,0.236-0.23,0.236-0.458c0-0.227-0.083-0.378-0.25-0.45c-0.167-0.073-0.433-0.109-0.799-0.109h-0.648V139.429z"/>
			<path style="fill:#3E79D1;" d="M172.071,140.358l-0.458-1.063h-2.063l-0.458,1.063h-1.169l2.126-4.922h1.063l2.126,4.922H172.071
				z M170.584,136.901l-0.619,1.43h1.232L170.584,136.901z"/>
			<path style="fill:#3E79D1;" d="M178.182,139.387c0.539,0,0.98-0.214,1.323-0.641l0.704,0.726
				c-0.559,0.629-1.217,0.943-1.975,0.943c-0.759,0-1.383-0.24-1.873-0.719c-0.49-0.479-0.736-1.082-0.736-1.813
				c0-0.73,0.25-1.339,0.75-1.827s1.111-0.732,1.834-0.732c0.808,0,1.483,0.308,2.028,0.923l-0.684,0.773
				c-0.347-0.432-0.779-0.646-1.295-0.646c-0.413,0-0.767,0.135-1.06,0.404c-0.294,0.27-0.44,0.634-0.44,1.092
				c0,0.457,0.139,0.824,0.416,1.102C177.451,139.249,177.787,139.387,178.182,139.387z"/>
			<path style="fill:#3E79D1;" d="M183.187,135.436h1.099v2.021l1.858-2.021h1.359l-1.958,2.176
				c0.169,0.234,0.481,0.673,0.937,1.314c0.455,0.641,0.796,1.118,1.021,1.433h-1.281l-1.443-1.943l-0.493,0.549v1.395h-1.099
				V135.436z"/>
			<path style="fill:#3E79D1;" d="M193.494,137.852h1.105v1.746c-0.488,0.544-1.164,0.816-2.028,0.816
				c-0.723,0-1.329-0.24-1.819-0.719c-0.491-0.479-0.736-1.082-0.736-1.813c0-0.73,0.25-1.339,0.75-1.827s1.104-0.732,1.81-0.732
				c0.706,0,1.32,0.232,1.841,0.697l-0.57,0.823c-0.221-0.191-0.423-0.324-0.608-0.398c-0.186-0.073-0.387-0.108-0.603-0.108
				c-0.418,0-0.77,0.142-1.056,0.426c-0.286,0.283-0.43,0.658-0.43,1.123c0,0.465,0.138,0.836,0.412,1.115
				c0.274,0.279,0.602,0.419,0.982,0.419c0.38,0,0.696-0.073,0.95-0.218V137.852z"/>
			<path style="fill:#3E79D1;" d="M201.683,137.07c0,0.788-0.313,1.298-0.937,1.528l1.246,1.76h-1.352l-1.092-1.57h-0.761v1.57
				h-1.098v-4.922h1.865c0.766,0,1.311,0.13,1.637,0.388C201.519,136.083,201.683,136.498,201.683,137.07z M200.359,137.655
				c0.137-0.123,0.204-0.316,0.204-0.581c0-0.265-0.07-0.447-0.211-0.546c-0.141-0.099-0.388-0.148-0.739-0.148h-0.824v1.458h0.803
				C199.967,137.838,200.223,137.776,200.359,137.655z"/>
			<path style="fill:#3E79D1;" d="M209.011,139.679c-0.497,0.486-1.109,0.729-1.837,0.729c-0.728,0-1.341-0.242-1.838-0.729
				c-0.497-0.485-0.746-1.09-0.746-1.813c0-0.723,0.249-1.327,0.746-1.813c0.497-0.486,1.11-0.73,1.838-0.73
				c0.727,0,1.34,0.243,1.837,0.73c0.498,0.485,0.747,1.09,0.747,1.813C209.758,138.589,209.509,139.193,209.011,139.679z
				 M208.638,137.87c0-0.439-0.141-0.814-0.422-1.123c-0.282-0.311-0.628-0.465-1.039-0.465c-0.41,0-0.757,0.154-1.038,0.465
				c-0.281,0.309-0.423,0.684-0.423,1.123c0,0.439,0.142,0.812,0.423,1.119c0.281,0.307,0.628,0.461,1.038,0.461
				c0.411,0,0.757-0.154,1.039-0.461C208.497,138.682,208.638,138.309,208.638,137.87z"/>
			<path style="fill:#3E79D1;" d="M214.102,139.087c0.183,0.229,0.43,0.342,0.739,0.342s0.555-0.113,0.735-0.342
				c0.181-0.227,0.271-0.538,0.271-0.932v-2.719h1.099v2.754c0,0.713-0.197,1.261-0.592,1.644c-0.395,0.382-0.898,0.573-1.514,0.573
				c-0.615,0-1.121-0.191-1.518-0.576c-0.396-0.386-0.595-0.932-0.595-1.641v-2.754h1.099v2.719
				C213.827,138.549,213.919,138.86,214.102,139.087z"/>
			<path style="fill:#3E79D1;" d="M223.642,135.436h1.098v4.922h-1.098l-2.345-3.084v3.084h-1.099v-4.922h1.028l2.415,3.169V135.436
				z"/>
			<path style="fill:#3E79D1;" d="M231.822,136.081c0.47,0.43,0.704,1.027,0.704,1.792c0,0.765-0.229,1.37-0.686,1.816
				c-0.457,0.446-1.155,0.669-2.095,0.669h-1.683v-4.922h1.739C230.68,135.436,231.353,135.651,231.822,136.081z M231.017,139.007
				c0.27-0.254,0.404-0.622,0.404-1.105s-0.135-0.855-0.404-1.116c-0.271-0.261-0.685-0.391-1.243-0.391h-0.612v2.992h0.697
				C230.361,139.387,230.746,139.261,231.017,139.007z"/>
			<path style="fill:#3E79D1;" d="M235.455,138.711v-0.936h2.507v0.936H235.455z"/>
		</g>
	</g>
</g>
</svg>
